<svg xmlns="http://www.w3.org/2000/svg" xmlns:xlink="http://www.w3.org/1999/xlink" viewBox="0 0 127.22 27"><defs><clipPath id="clip-path"><rect width="127.22" height="27" fill="none"/></clipPath></defs><g id="Layer_2" data-name="Layer 2"><g id="Layer_1-2" data-name="Layer 1"><g clip-path="url(#clip-path)"><rect width="127.22" height="27" rx="4" fill="#4a863e"/></g><path d="M13.21,8.41a3.53,3.53,0,0,1,1.84,1.37,4.69,4.69,0,0,1,.77,1.74A8.15,8.15,0,0,1,16,13.31,7.11,7.11,0,0,1,15.16,17a3.89,3.89,0,0,1-3.62,2H6.89V8.17h4.65A5.52,5.52,0,0,1,13.21,8.41ZM9.08,10.05v7h2.08a2.25,2.25,0,0,0,2.23-1.57,5.56,5.56,0,0,0,.34-2.06,5.12,5.12,0,0,0-.51-2.53,2.19,2.19,0,0,0-2.06-.88Z" fill="#fff"/><path d="M23.91,18a3.74,3.74,0,0,1-3.07,1.25A3.72,3.72,0,0,1,17.77,18a4.63,4.63,0,0,1-1-3,4.71,4.71,0,0,1,1-3,3.7,3.7,0,0,1,3.07-1.26A3.71,3.71,0,0,1,23.91,12a4.71,4.71,0,0,1,1,3A4.63,4.63,0,0,1,23.91,18Zm-1.67-1.15A3.08,3.08,0,0,0,22.73,15a3.06,3.06,0,0,0-.49-1.85,1.85,1.85,0,0,0-2.82,0A3,3,0,0,0,18.93,15a3,3,0,0,0,.49,1.85,1.85,1.85,0,0,0,2.82,0Z" fill="#fff"/><path d="M29.89,11H32l1.22,5.75L34.47,11h2.17l-2.31,8H32.19l-1.26-5.82L29.66,19H27.49l-2.24-8h2.24l1.25,5.73Z" fill="#fff"/><path d="M44,11.44a2.65,2.65,0,0,1,.78,2.15V19H42.59V14.11a2.22,2.22,0,0,0-.16-1,1.2,1.2,0,0,0-1.17-.62,1.43,1.43,0,0,0-1.44.9,3,3,0,0,0-.21,1.22V19H37.52V11h2v1.16a3.5,3.5,0,0,1,.75-.88,2.59,2.59,0,0,1,1.63-.49A3.1,3.1,0,0,1,44,11.44Z" fill="#fff"/><path d="M48.52,19H46.43V8.17h2.09Z" fill="#fff"/><path d="M56.93,18a3.74,3.74,0,0,1-3.07,1.25A3.72,3.72,0,0,1,50.79,18a4.63,4.63,0,0,1-1-3,4.71,4.71,0,0,1,1-3,3.7,3.7,0,0,1,3.07-1.26A3.71,3.71,0,0,1,56.93,12a4.71,4.71,0,0,1,1,3A4.63,4.63,0,0,1,56.93,18Zm-1.67-1.15A3.08,3.08,0,0,0,55.75,15a3.06,3.06,0,0,0-.49-1.85,1.85,1.85,0,0,0-2.82,0A3,3,0,0,0,52,15a3,3,0,0,0,.49,1.85,1.85,1.85,0,0,0,2.82,0Z" fill="#fff"/><path d="M62.31,14.11a3.4,3.4,0,0,0,.83-.18.63.63,0,0,0,.45-.59.7.7,0,0,0-.34-.68,2.13,2.13,0,0,0-1-.19,1.31,1.31,0,0,0-1.06.37,1.48,1.48,0,0,0-.29.73h-2a3.08,3.08,0,0,1,.59-1.72,3.44,3.44,0,0,1,2.85-1.06,5.17,5.17,0,0,1,2.34.52,2,2,0,0,1,1,2v3.66c0,.25,0,.56,0,.92a1.37,1.37,0,0,0,.12.56.76.76,0,0,0,.31.24V19H63.84a2.13,2.13,0,0,1-.13-.46q0-.21-.06-.48a4.34,4.34,0,0,1-1,.8,3,3,0,0,1-1.53.39,2.64,2.64,0,0,1-1.8-.62,2.19,2.19,0,0,1-.71-1.76,2.27,2.27,0,0,1,1.14-2.13,5,5,0,0,1,1.84-.51Zm1.28,1a2.58,2.58,0,0,1-.41.2,3.23,3.23,0,0,1-.56.14l-.47.09a3.19,3.19,0,0,0-1,.28,1,1,0,0,0-.5.89.92.92,0,0,0,.3.77,1.15,1.15,0,0,0,.74.24A2.23,2.23,0,0,0,63,17.31a1.72,1.72,0,0,0,.6-1.45Z" fill="#fff"/><path d="M71.42,11.11a2.61,2.61,0,0,1,.92.89V8.19h2.12V19h-2V17.86a2.87,2.87,0,0,1-1,1,2.81,2.81,0,0,1-1.42.33,3,3,0,0,1-2.36-1.13,4.41,4.41,0,0,1-.95-2.91A5,5,0,0,1,67.62,12a3.06,3.06,0,0,1,2.51-1.18A2.57,2.57,0,0,1,71.42,11.11Zm.52,5.69a3,3,0,0,0,.46-1.71A2.63,2.63,0,0,0,71.66,13a1.64,1.64,0,0,0-1.06-.38,1.46,1.46,0,0,0-1.34.69A3.16,3.16,0,0,0,68.83,15a3.2,3.2,0,0,0,.44,1.77,1.47,1.47,0,0,0,1.32.66A1.55,1.55,0,0,0,71.94,16.8Z" fill="#fff"/><path d="M87.38,11.54A2.09,2.09,0,0,0,86.12,10a3.07,3.07,0,0,0-1.23-.25,2.7,2.7,0,0,0-2.15,1,4.44,4.44,0,0,0-.83,2.95,3.7,3.7,0,0,0,.9,2.82,3,3,0,0,0,2.07.83,2.65,2.65,0,0,0,1.86-.66,2.79,2.79,0,0,0,.89-1.7H85.14v-1.8h4.49V19H88.14l-.23-1.35a5,5,0,0,1-1.17,1.08,4.2,4.2,0,0,1-2.2.55A4.56,4.56,0,0,1,81,17.76a5.62,5.62,0,0,1-1.43-4.08A6,6,0,0,1,81,9.47a5.54,5.54,0,0,1,7.12-.53,3.87,3.87,0,0,1,1.44,2.6Z" fill="#fff"/><path d="M93.41,11V15.8a2.64,2.64,0,0,0,.16,1,1.11,1.11,0,0,0,1.12.61,1.47,1.47,0,0,0,1.46-.86,3.31,3.31,0,0,0,.2-1.24V11h2.12v8h-2V17.84l-.15.22a1.43,1.43,0,0,1-.28.32,2.79,2.79,0,0,1-.94.6,3.17,3.17,0,0,1-1.07.16,2.38,2.38,0,0,1-2.38-1.27,4.86,4.86,0,0,1-.35-2.07V11Z" fill="#fff"/><path d="M102.36,10h-2.12V8.11h2.12Zm-2.12,1h2.12v8h-2.12Z" fill="#fff"/><path d="M108.33,11.11a2.58,2.58,0,0,1,.91.89V8.19h2.12V19h-2V17.86a2.87,2.87,0,0,1-1,1,2.79,2.79,0,0,1-1.42.33,3,3,0,0,1-2.36-1.13,4.41,4.41,0,0,1-1-2.91,5,5,0,0,1,.94-3.21A3.08,3.08,0,0,1,107,10.79,2.62,2.62,0,0,1,108.33,11.11Zm.51,5.69a2.9,2.9,0,0,0,.46-1.71,2.63,2.63,0,0,0-.74-2.09,1.59,1.59,0,0,0-1-.38,1.47,1.47,0,0,0-1.35.69,3.25,3.25,0,0,0-.43,1.72,3.2,3.2,0,0,0,.44,1.77,1.47,1.47,0,0,0,1.32.66A1.55,1.55,0,0,0,108.84,16.8Z" fill="#fff"/><path d="M118.17,11.15a3.2,3.2,0,0,1,1.38,1.18,3.88,3.88,0,0,1,.64,1.65,11,11,0,0,1,.07,1.58h-5.82a1.91,1.91,0,0,0,.84,1.69,2.12,2.12,0,0,0,1.15.3,1.75,1.75,0,0,0,1.16-.37,1.79,1.79,0,0,0,.43-.55h2.13a2.62,2.62,0,0,1-.78,1.44,3.85,3.85,0,0,1-3,1.17,4.37,4.37,0,0,1-2.81-1,3.89,3.89,0,0,1-1.22-3.2,4.34,4.34,0,0,1,1.1-3.18,3.83,3.83,0,0,1,2.85-1.11A4.51,4.51,0,0,1,118.17,11.15ZM115.05,13a2.17,2.17,0,0,0-.56,1.24h3.6a1.74,1.74,0,0,0-.56-1.27,1.84,1.84,0,0,0-1.23-.43A1.67,1.67,0,0,0,115.05,13Z" fill="#fff"/></g></g></svg>