<svg xmlns="http://www.w3.org/2000/svg" xmlns:xlink="http://www.w3.org/1999/xlink" viewBox="0 0 110.42 55.21"><defs><clipPath id="clip-path"><rect width="110.42" height="55.21" fill="none"/></clipPath></defs><g id="Layer_2" data-name="Layer 2"><g id="Layer_1-2" data-name="Layer 1"><g clip-path="url(#clip-path)"><path d="M0,55.21a55.21,55.21,0,0,1,110.42,0" fill="#067dbf"/><path d="M26,22.92v2.82H28.4a2.53,2.53,0,0,0,1.05-.17,1.18,1.18,0,0,0,.62-1.18,1.32,1.32,0,0,0-.6-1.28,2.06,2.06,0,0,0-1-.19Zm4.53-1.55a2.63,2.63,0,0,1,1,.74,3.28,3.28,0,0,1,.53.88,3.13,3.13,0,0,1-.19,2.57,2.1,2.1,0,0,1-1.24,1,2,2,0,0,1,1,.82A3.49,3.49,0,0,1,32,29v.7a5.17,5.17,0,0,0,.06,1,.86.86,0,0,0,.4.6v.26H30c-.06-.23-.11-.42-.14-.56a5.5,5.5,0,0,1-.09-.91v-1a2,2,0,0,0-.35-1.34,1.78,1.78,0,0,0-1.25-.33H26v4.11H23.91V21.1h5a4.86,4.86,0,0,1,1.65.27" fill="#282e6d"/></g><path d="M33.58,23.83h2.05v7.75H33.58Zm2.05-.92H33.58V21h2.05Z" fill="#282e6d"/><g clip-path="url(#clip-path)"><path d="M38.51,29.1a1.36,1.36,0,0,0,.27.77,1.9,1.9,0,0,0,1.4.41,2.16,2.16,0,0,0,1-.18.58.58,0,0,0,.35-.53.57.57,0,0,0-.28-.52,11.73,11.73,0,0,0-2.12-.61,4.39,4.39,0,0,1-1.86-.82,1.77,1.77,0,0,1-.54-1.39,2.43,2.43,0,0,1,.84-1.85,3.41,3.41,0,0,1,2.38-.77,4.32,4.32,0,0,1,2.36.58,2.48,2.48,0,0,1,1,2h-2a1.2,1.2,0,0,0-.22-.62,1.43,1.43,0,0,0-1.14-.41,1.65,1.65,0,0,0-.95.21.6.6,0,0,0-.28.48.52.52,0,0,0,.3.5,13.14,13.14,0,0,0,2.12.57,3.83,3.83,0,0,1,1.81.86,1.92,1.92,0,0,1,.6,1.45,2.35,2.35,0,0,1-.86,1.88,4,4,0,0,1-2.65.73,4.06,4.06,0,0,1-2.71-.77,2.51,2.51,0,0,1-.87-2Z" fill="#282e6d"/><path d="M46.39,25.74a2,2,0,0,0-.54,1.2h3.49a1.73,1.73,0,0,0-.54-1.23,1.8,1.8,0,0,0-1.2-.41,1.59,1.59,0,0,0-1.21.44m3-1.75a3.09,3.09,0,0,1,1.34,1.15,3.83,3.83,0,0,1,.62,1.6,10.53,10.53,0,0,1,.06,1.53H45.8a1.86,1.86,0,0,0,.81,1.64,2.1,2.1,0,0,0,1.12.29,1.69,1.69,0,0,0,1.12-.36,1.54,1.54,0,0,0,.42-.53h2.07a2.59,2.59,0,0,1-.75,1.4,3.8,3.8,0,0,1-2.92,1.13,4.26,4.26,0,0,1-2.73-.95,3.79,3.79,0,0,1-1.18-3.1,4.22,4.22,0,0,1,1.07-3.09,3.71,3.71,0,0,1,2.77-1.07,4.45,4.45,0,0,1,1.82.36" fill="#282e6d"/><path d="M58.58,29.51a2.91,2.91,0,0,0,.48-1.79,2.92,2.92,0,0,0-.48-1.8,1.61,1.61,0,0,0-1.36-.62,1.64,1.64,0,0,0-1.37.62,2.92,2.92,0,0,0-.48,1.8,2.91,2.91,0,0,0,.48,1.79,1.62,1.62,0,0,0,1.37.63,1.59,1.59,0,0,0,1.36-.63m1.62,1.12a4.26,4.26,0,0,1-6,0,4.81,4.81,0,0,1,0-5.82,4.21,4.21,0,0,1,6,0,4.77,4.77,0,0,1,0,5.82" fill="#282e6d"/><path d="M65.18,21l.43,0v1.65a3.67,3.67,0,0,0-.57,0,.69.69,0,0,0-.56.17.68.68,0,0,0-.15.42v.65h1.33v1.43H64.33v6.25h-2V25.33H61.18V23.9h1.11v-.49a2.65,2.65,0,0,1,.42-1.72q.43-.69,2.13-.69h.34" fill="#282e6d"/><path d="M67.31,25.35V23.9h1.08V21.74h2V23.9h1.26v1.45H70.39v4.09a.91.91,0,0,0,.12.59,1.31,1.31,0,0,0,.74.12h.4v1.51l-1,0a2.56,2.56,0,0,1-2-.49,1.47,1.47,0,0,1-.34-1.08V25.35Z" fill="#282e6d"/><path d="M77.86,23.88a2.16,2.16,0,0,1,1,.76,2.06,2.06,0,0,1,.39.89,10.54,10.54,0,0,1,.07,1.5v4.55H77.21V26.86a2.11,2.11,0,0,0-.21-1,1.05,1.05,0,0,0-1-.54,1.41,1.41,0,0,0-1.21.54,2.44,2.44,0,0,0-.42,1.53v4.2h-2V21.14h2v3.69a2.51,2.51,0,0,1,1-.94,3,3,0,0,1,1.21-.26,3.21,3.21,0,0,1,1.3.25" fill="#282e6d"/><path d="M82.55,25.74a2,2,0,0,0-.54,1.2H85.5A1.73,1.73,0,0,0,85,25.71a1.84,1.84,0,0,0-1.2-.41,1.58,1.58,0,0,0-1.21.44m3-1.75a3.14,3.14,0,0,1,1.34,1.15,3.82,3.82,0,0,1,.61,1.6,9,9,0,0,1,.07,1.53H82a1.86,1.86,0,0,0,.81,1.64,2.08,2.08,0,0,0,1.11.29A1.7,1.7,0,0,0,85,29.84a1.54,1.54,0,0,0,.42-.53h2.06a2.46,2.46,0,0,1-.75,1.4,3.76,3.76,0,0,1-2.91,1.13,4.26,4.26,0,0,1-2.73-.95,3.75,3.75,0,0,1-1.18-3.1A4.18,4.18,0,0,1,81,24.7a3.71,3.71,0,0,1,2.77-1.07,4.45,4.45,0,0,1,1.82.36" fill="#282e6d"/><path d="M23.68,42.36a4.29,4.29,0,0,0,.77-2.73,4.28,4.28,0,0,0-.77-2.72,2.49,2.49,0,0,0-2.06-1,2.56,2.56,0,0,0-2.08.95,4.29,4.29,0,0,0-.77,2.73,4.29,4.29,0,0,0,.77,2.73,2.54,2.54,0,0,0,2.08,1,2.49,2.49,0,0,0,2.06-1M25.05,44a4.54,4.54,0,0,1-3.43,1.23A4.54,4.54,0,0,1,18.19,44a5.65,5.65,0,0,1-1.59-4.32,5.55,5.55,0,0,1,1.59-4.32,4.57,4.57,0,0,1,3.43-1.22,4.57,4.57,0,0,1,3.43,1.22,5.55,5.55,0,0,1,1.59,4.32A5.65,5.65,0,0,1,25.05,44" fill="#fff"/><path d="M33.73,37.58a2.57,2.57,0,0,1,.76,2.09v5.21H32.42V40.17a2.1,2.1,0,0,0-.16-.93,1.15,1.15,0,0,0-1.13-.6,1.41,1.41,0,0,0-1.41.87,3.07,3.07,0,0,0-.19,1.18v4.19h-2V37.15h2v1.13a3.73,3.73,0,0,1,.74-.86A2.56,2.56,0,0,1,31.78,37a3,3,0,0,1,1.95.63" fill="#fff"/></g><rect x="35.76" y="34.41" width="2.03" height="10.47" fill="#fff"/><path d="M39.14,37.14h2v7.74h-2Zm2-.92h-2V34.35h2Z" fill="#fff"/><g clip-path="url(#clip-path)"><path d="M48.74,37.58a2.57,2.57,0,0,1,.76,2.09v5.21H47.43V40.17a2.1,2.1,0,0,0-.16-.93,1.15,1.15,0,0,0-1.13-.6,1.41,1.41,0,0,0-1.41.87,3.07,3.07,0,0,0-.19,1.18v4.19h-2V37.15h2v1.13a3.73,3.73,0,0,1,.74-.86A2.56,2.56,0,0,1,46.79,37a3,3,0,0,1,2,.63" fill="#fff"/><path d="M52.75,39a2.09,2.09,0,0,0-.54,1.2H55.7A1.72,1.72,0,0,0,55.16,39,1.76,1.76,0,0,0,54,38.6a1.63,1.63,0,0,0-1.21.44m3-1.74a3.13,3.13,0,0,1,1.34,1.14,3.74,3.74,0,0,1,.61,1.6,9.24,9.24,0,0,1,.07,1.54H52.16A1.84,1.84,0,0,0,53,43.21a2,2,0,0,0,1.12.3,1.69,1.69,0,0,0,1.12-.36,1.76,1.76,0,0,0,.42-.53H57.7A2.62,2.62,0,0,1,57,44,3.8,3.8,0,0,1,54,45.15a4.21,4.21,0,0,1-2.73-1,3.77,3.77,0,0,1-1.18-3.1A4.18,4.18,0,0,1,51.19,38,3.71,3.71,0,0,1,54,36.93a4.29,4.29,0,0,1,1.82.37" fill="#fff"/></g><polygon points="60.27 34.41 62.46 34.41 62.46 43 67.69 43 67.69 44.88 60.27 44.88 60.27 34.41" fill="#fff"/><g clip-path="url(#clip-path)"><path d="M73.18,42.82a3.66,3.66,0,0,0,0-3.59,1.8,1.8,0,0,0-2.74,0,3.6,3.6,0,0,0,0,3.59,1.8,1.8,0,0,0,2.74,0m1.62,1.12a4.27,4.27,0,0,1-6,0,4.81,4.81,0,0,1,0-5.82,4.22,4.22,0,0,1,6,0,4.81,4.81,0,0,1,0,5.82" fill="#fff"/><path d="M81.21,39.92a1.77,1.77,0,0,0-.3-.78,1.2,1.2,0,0,0-1.06-.47,1.4,1.4,0,0,0-1.4,1,4.31,4.31,0,0,0-.2,1.43,3.93,3.93,0,0,0,.2,1.37,1.35,1.35,0,0,0,1.37,1,1.23,1.23,0,0,0,1-.38,1.9,1.9,0,0,0,.36-1h2.07a3.39,3.39,0,0,1-.67,1.75,3.26,3.26,0,0,1-2.82,1.33A3.32,3.32,0,0,1,77,44a4.54,4.54,0,0,1-.88-2.88,4.56,4.56,0,0,1,1-3.1A3.38,3.38,0,0,1,79.8,37a4,4,0,0,1,2.38.66,3,3,0,0,1,1.1,2.31Z" fill="#fff"/><path d="M88.32,41.12a2.09,2.09,0,0,1-.4.19,2.94,2.94,0,0,1-.54.14l-.46.09a2.86,2.86,0,0,0-.93.28.91.91,0,0,0-.48.85.9.9,0,0,0,.29.75,1.09,1.09,0,0,0,.71.24,2.11,2.11,0,0,0,1.23-.39,1.64,1.64,0,0,0,.58-1.4Zm-1.24-.95a3.06,3.06,0,0,0,.81-.17.62.62,0,0,0,.43-.58.68.68,0,0,0-.33-.66,2.11,2.11,0,0,0-1-.18,1.27,1.27,0,0,0-1,.36,1.4,1.4,0,0,0-.29.71h-2A3.06,3.06,0,0,1,84.3,38a3.35,3.35,0,0,1,2.77-1,4.87,4.87,0,0,1,2.27.51,1.94,1.94,0,0,1,1,1.9v3.56c0,.24,0,.54,0,.89a1,1,0,0,0,.12.54.82.82,0,0,0,.3.24v.29h-2.2a1.56,1.56,0,0,1-.13-.44c0-.13,0-.29-.06-.46a4.07,4.07,0,0,1-1,.77,3,3,0,0,1-1.49.38,2.58,2.58,0,0,1-1.75-.6,2.14,2.14,0,0,1-.69-1.71,2.19,2.19,0,0,1,1.11-2.06,4.88,4.88,0,0,1,1.79-.5Z" fill="#fff"/></g><rect x="91.49" y="34.41" width="2.03" height="10.47" fill="#fff"/></g></g></svg>